<svg width="316" height="101" viewBox="0 0 316 101" fill="none" xmlns="http://www.w3.org/2000/svg">
<g clip-path="url(#clip0_1_7)">
<path d="M211.649 100.081V24.3244C211.649 24.3244 212.859 0 241.446 0H315.997V75.3675C315.997 75.3675 315.295 100.091 290.144 100.091L211.649 100.081Z" fill="#11A0DB"/>
<path d="M238.431 81.7509C237.169 81.7509 236.535 81.1269 236.535 79.8895V16.5878C236.535 15.3469 237.169 14.7264 238.431 14.7264H246.581C247.843 14.7264 248.471 15.3469 248.471 16.5878V79.8895C248.471 81.1269 247.843 81.7509 246.581 81.7509H238.431Z" fill="white"/>
<path d="M271.877 81.7509C270.615 81.7509 269.984 81.1269 269.984 79.8895V23.101H256.057C254.788 23.101 254.16 22.484 254.16 21.2396V16.5878C254.16 15.3469 254.788 14.7264 256.057 14.7264H295.851C297.113 14.7264 297.744 15.3469 297.744 16.5878V21.2431C297.744 22.4875 297.113 23.1045 295.851 23.1045H281.92V79.893C281.92 81.1304 281.289 81.7544 280.023 81.7544L271.877 81.7509Z" fill="white"/>
<path d="M20.4053 81.7509C15.9954 81.7509 12.6594 80.5824 10.3972 78.2455C8.13501 75.9085 7.00041 72.3493 6.9934 67.5678V41.6274H1.94203C0.645006 41.6274 0 41.0244 0 39.8081V36.2745C0 35.0617 0.645006 34.4552 1.94203 34.4552H6.9934V27.4443C6.9934 26.7782 7.15816 26.3681 7.48066 26.2139C7.80316 26.0596 8.29042 25.8633 8.93542 25.6214L16.7281 22.9012C17.3731 22.6675 17.8592 22.7435 18.1863 23.1291C18.5275 23.5885 18.6974 24.1526 18.6666 24.724V34.4552H24.7906C26.083 34.4552 26.7292 35.0617 26.7292 36.2745V39.8186C26.7292 41.035 26.0842 41.6379 24.7906 41.6379H18.6526V67.8377C18.6526 70.0766 19.1574 71.6832 20.1669 72.6578C21.1765 73.6323 22.2281 74.1172 23.3218 74.1125H24.0019C25.2989 74.1125 25.9474 74.7155 25.9474 75.9319V79.9351C25.9474 81.1456 25.2989 81.7509 24.0019 81.7509H20.4053Z" fill="white"/>
<path d="M68.609 81.7509C67.3085 81.7509 66.6634 81.1445 66.6634 79.9351V58.2853C66.7135 55.3916 66.5 52.4994 66.0255 49.6444C65.6118 47.4009 65.0147 45.6423 64.2342 44.3687C63.5936 43.2209 62.6142 42.299 61.4298 41.729C60.2636 41.2318 59.0062 40.9846 57.7385 41.0034C54.0461 41.0034 51.1962 42.11 49.1887 44.3231C47.1813 46.5362 46.1763 50.2812 46.174 55.5581V79.9351C46.174 81.1456 45.5267 81.7509 44.232 81.7509H36.4393C35.1423 81.7509 34.4973 81.1445 34.4973 79.9351V16.2653C34.4973 15.049 35.1423 14.4425 36.4393 14.4425H44.2145C45.5068 14.4425 46.1541 15.0501 46.1565 16.2653V40.0043H46.3493C47.4927 38.1286 49.0518 36.5406 50.9064 35.3631C52.9139 34.031 55.7311 33.3638 59.3581 33.3615C61.8572 33.3461 64.3403 33.7611 66.6985 34.5884C69.0286 35.4294 71.1035 36.855 72.7244 38.7284C74.4397 40.6704 75.7987 43.2329 76.8012 46.4158C77.8038 49.5988 78.3074 53.5553 78.3121 58.2853V79.9351C78.3121 81.1456 77.6636 81.7509 76.3666 81.7509H68.609Z" fill="white"/>
<path d="M89.9923 25.3585C88.6953 25.3585 88.0468 24.7521 88.0468 23.5392V16.2653C88.0468 15.0501 88.6953 14.4425 89.9923 14.4425H97.7674C99.0574 14.4425 99.7094 15.049 99.7094 16.2653V23.5392C99.7094 24.7521 99.0574 25.3585 97.7674 25.3585H89.9923Z" fill="#11A0DB"/>
<path d="M89.9923 81.7509C88.6953 81.7509 88.0468 81.1456 88.0468 79.9351V36.2745C88.0468 35.0616 88.6953 34.4552 89.9923 34.4552H97.7674C99.0574 34.4552 99.7094 35.0616 99.7094 36.2745V79.9351C99.7094 81.1445 99.0574 81.7509 97.7674 81.7509H89.9923Z" fill="white"/>
<path d="M141.964 81.7509C140.737 81.7509 140.124 81.1456 140.124 79.9351V54.2821C140.127 52.5898 139.981 50.9006 139.686 49.2342C139.436 47.7542 138.943 46.3258 138.228 45.0066C137.576 43.8262 136.641 42.8264 135.507 42.0971C134.234 41.3304 132.765 40.9504 131.28 41.0034C124.477 41.0034 121.076 45.7323 121.079 55.19V79.9351C121.079 81.1445 120.427 81.7509 119.133 81.7509H111.376C110.076 81.7509 109.427 81.1456 109.427 79.9351V36.2745C109.427 35.0616 110.076 34.4552 111.376 34.4552H116.231C116.932 34.4552 117.416 34.5884 117.633 34.8618C117.916 35.2821 118.098 35.7619 118.166 36.264L119.14 39.9938H119.337C119.912 38.906 120.684 37.9348 121.615 37.1299C122.565 36.3012 123.627 35.6108 124.77 35.0792C125.954 34.527 127.192 34.1005 128.465 33.8067C129.704 33.5104 130.973 33.3575 132.247 33.351C134.838 33.3313 137.415 33.7302 139.879 34.5323C142.143 35.2673 144.24 36.4432 146.048 37.9922C147.824 39.5432 149.249 41.4554 150.227 43.601C151.302 45.9854 151.833 48.5788 151.783 51.1938V79.9386C151.783 81.1491 151.167 81.7544 149.936 81.7544L141.964 81.7509Z" fill="white"/>
<path d="M192.205 81.7509C191.608 81.77 191.016 81.6482 190.476 81.3954C189.936 81.1427 189.463 80.766 189.095 80.2961L173.159 61.1037V79.9351C173.159 81.1445 172.511 81.7509 171.196 81.7509H163.463C162.152 81.7509 161.504 81.1445 161.504 79.9351V16.2653C161.504 15.049 162.152 14.4425 163.463 14.4425H171.196C172.511 14.4425 173.159 15.049 173.159 16.2653V55.176L189.484 35.8959C189.853 35.426 190.326 35.0494 190.867 34.7966C191.408 34.5439 192.001 34.4221 192.597 34.4412H200.66C202.083 34.4412 202.341 34.9261 201.435 35.8959L182.098 57.2793L202.518 80.2961C203.422 81.2636 203.164 81.7486 201.743 81.7509H192.205Z" fill="white"/>
</g>
<defs>
<clipPath id="clip0_1_7">
<rect width="316" height="100.084" fill="white"/>
</clipPath>
</defs>
</svg>
